<mxfile host="app.diagrams.net" modified="2024-04-26T21:04:58.061Z" agent="Mozilla/5.0 (Macintosh; Intel Mac OS X 10_15_7) AppleWebKit/537.36 (KHTML, like Gecko) Chrome/124.0.0.0 Safari/537.36" etag="he7Nvf2KbqvXzV2cBTQe" version="24.2.5" type="device">
  <diagram name="Page-1" id="W8_q_6nKhqI3M3y6_RIn">
    <mxGraphModel dx="819" dy="424" grid="1" gridSize="10" guides="1" tooltips="1" connect="1" arrows="1" fold="1" page="1" pageScale="1" pageWidth="850" pageHeight="1100" math="0" shadow="0">
      <root>
        <mxCell id="0" />
        <mxCell id="1" parent="0" />
        <mxCell id="w9_owQFPCTa7-SOosFOt-1" value="VPC" style="points=[[0,0],[0.25,0],[0.5,0],[0.75,0],[1,0],[1,0.25],[1,0.5],[1,0.75],[1,1],[0.75,1],[0.5,1],[0.25,1],[0,1],[0,0.75],[0,0.5],[0,0.25]];outlineConnect=0;gradientColor=none;html=1;whiteSpace=wrap;fontSize=12;fontStyle=0;container=1;pointerEvents=0;collapsible=0;recursiveResize=0;shape=mxgraph.aws4.group;grIcon=mxgraph.aws4.group_vpc2;strokeColor=#8C4FFF;fillColor=none;verticalAlign=top;align=left;spacingLeft=30;fontColor=#AAB7B8;dashed=0;" vertex="1" parent="1">
          <mxGeometry x="180" y="60" width="580" height="310" as="geometry" />
        </mxCell>
        <mxCell id="w9_owQFPCTa7-SOosFOt-2" value="Public subnet" style="points=[[0,0],[0.25,0],[0.5,0],[0.75,0],[1,0],[1,0.25],[1,0.5],[1,0.75],[1,1],[0.75,1],[0.5,1],[0.25,1],[0,1],[0,0.75],[0,0.5],[0,0.25]];outlineConnect=0;gradientColor=none;html=1;whiteSpace=wrap;fontSize=12;fontStyle=0;container=1;pointerEvents=0;collapsible=0;recursiveResize=0;shape=mxgraph.aws4.group;grIcon=mxgraph.aws4.group_security_group;grStroke=0;strokeColor=#7AA116;fillColor=#F2F6E8;verticalAlign=top;align=left;spacingLeft=30;fontColor=#248814;dashed=0;" vertex="1" parent="1">
          <mxGeometry x="240" y="100" width="470" height="230" as="geometry" />
        </mxCell>
        <mxCell id="w9_owQFPCTa7-SOosFOt-4" value="EC2 instance" style="outlineConnect=0;dashed=0;verticalLabelPosition=bottom;verticalAlign=top;align=center;html=1;shape=mxgraph.aws3.ec2;fillColor=#F58534;gradientColor=none;" vertex="1" parent="w9_owQFPCTa7-SOosFOt-2">
          <mxGeometry x="245" y="64" width="76.5" height="93" as="geometry" />
        </mxCell>
        <mxCell id="w9_owQFPCTa7-SOosFOt-9" style="edgeStyle=orthogonalEdgeStyle;rounded=0;orthogonalLoop=1;jettySize=auto;html=1;" edge="1" parent="w9_owQFPCTa7-SOosFOt-2" source="w9_owQFPCTa7-SOosFOt-7" target="w9_owQFPCTa7-SOosFOt-4">
          <mxGeometry relative="1" as="geometry" />
        </mxCell>
        <mxCell id="w9_owQFPCTa7-SOosFOt-7" value="Elastic IP" style="outlineConnect=0;dashed=0;verticalLabelPosition=bottom;verticalAlign=top;align=center;html=1;shape=mxgraph.aws3.elastic_ip;fillColor=#F58534;gradientColor=none;" vertex="1" parent="w9_owQFPCTa7-SOosFOt-2">
          <mxGeometry x="130" y="100" width="76.5" height="21" as="geometry" />
        </mxCell>
        <mxCell id="w9_owQFPCTa7-SOosFOt-5" value="Internet Gateway&amp;nbsp;" style="outlineConnect=0;dashed=0;verticalLabelPosition=middle;verticalAlign=middle;align=right;html=1;shape=mxgraph.aws3.internet_gateway;fillColor=#F58534;gradientColor=none;labelPosition=left;" vertex="1" parent="1">
          <mxGeometry x="140" y="179" width="69" height="72" as="geometry" />
        </mxCell>
      </root>
    </mxGraphModel>
  </diagram>
</mxfile>
